name analog
datacolumns 19
datarows 20
range 0.3125 0.322
endheader
time	ground_force_vx	ground_force_vy	ground_force_vz	ground_force_px	ground_force_py	ground_force_pz	l_ground_force_vx	l_ground_force_vy	l_ground_force_vz	l_ground_force_px	l_ground_force_py	l_ground_force_pz	ground_torque_x	ground_torque_y	ground_torque_z	l_ground_torque_x	l_ground_torque_y	l_ground_torque_z
0.3125	-0.0	-0.0	-0.0	6.526525974273682	33.69129180908203	-339.4653625488281	-10.12798023223877	-43.79267120361328	-394.25103759765625	-35.09775161743164	16.02969741821289	74.87313079833984	-0.0	-0.0	-0.0	68862.25	-19792.033203125	-11878.9423828125
0.313	-0.0	-0.0	-0.0	6.3195977210998535	33.780426025390625	-340.1123046875	-10.52675724029541	-43.64652633666992	-395.2953186035156	-35.306549072265625	16.269027709960938	75.103759765625	-0.0	-0.0	-0.0	69196.078125	-19824.197265625	-11904.1357421875
0.3135	-0.0	-0.0	-0.0	5.590789318084717	33.64692687988281	-338.5253295898437	-10.586334228515623	-43.80755615234375	-395.0682373046875	-35.30621719360352	16.23942756652832	75.62982940673828	-0.0	-0.0	-0.0	69578.7265625	-19730.638671875	-11864.375
0.314	-0.0	-0.0	-0.0	6.036495208740234	32.97850036621094	-340.1123046875	-10.734397888183594	-44.013771057128906	-396.5209045410156	-35.35101318359375	16.194534301757812	77.03379821777344	-0.0	-0.0	-0.0	69338.140625	-20010.01953125	-11973.421875
0.3145	-0.0	-0.0	-0.0	5.51617956161499	33.82500076293945	-341.58380126953125	-11.221831321716309	-43.91046142578125	-398.4403076171875	-35.03777313232422	16.254579544067383	76.0406494140625	-0.0	-0.0	-0.0	69806.796875	-20191.2421875	-11850.1328125
0.315	-0.0	-0.0	-0.0	5.189457416534424	34.53813552856445	-339.34637451171875	-11.221884727478027	-43.66039657592773	-398.9056091308594	-35.5150146484375	16.269580841064453	75.39649963378906	-0.0	-0.0	-0.0	70134.4765625	-20317.134765625	-11934.1337890625
0.3155	-0.0	-0.0	-0.0	4.594515323638916	34.18168258666992	-339.8177185058594	-11.29577350616455	-43.39512252807617	-400.8849182128906	-35.42555236816406	16.599681854248047	76.04036712646484	-0.0	-0.0	-0.0	70275.125	-20659.91796875	-11830.2763671875
0.316	-0.0	-0.0	-0.0	3.67297887802124	34.73191833496094	-339.9953308105469	-11.369694709777832	-43.571895599365234	-401.4681396484375	-35.171958923339844	15.849517822265623	74.63375091552734	-0.0	-0.0	-0.0	70494.484375	-20673.892578125	-11771.033203125
0.3165	-0.0	-0.0	-0.0	3.062626600265503	34.55315399169922	-339.9956359863281	-11.028837203979492	-43.4688835144043	-401.933837890625	-35.14141845703125	16.073890686035156	73.40282440185547	-0.0	-0.0	-0.0	70962.6484375	-21013.25390625	-11726.3662109375
0.317	-0.0	-0.0	-0.0	2.512612819671631	34.03310775756836	-341.2301025390625	-11.72448444366455	-43.29296875	-402.7449340820313	-35.54557418823242	15.923502922058104	75.63237762451172	-0.0	-0.0	-0.0	71172.875	-21613.9765625	-11855.287109375
0.3175	-0.0	-0.0	-0.0	2.4832136631011963	34.16740417480469	-346.1163330078125	-12.656396865844728	-42.77681350708008	-404.3713073730469	-35.38015365600586	16.02936553955078	75.74805450439453	-0.0	-0.0	-0.0	71630.015625	-21946.34375	-11910.2578125
0.318	-0.0	-0.0	-0.0	2.2156200408935547	33.39464569091797	-343.6966857910156	-12.595730781555176	-42.776737213134766	-405.1880798339844	-35.32144927978516	16.313966751098633	75.8056640625	-0.0	-0.0	-0.0	72092.734375	-22262.33203125	-12073.580078125
0.3185	-0.0	-0.0	-0.0	2.3356175422668457	33.28944396972656	-345.2942810058594	-13.498595237731934	-42.46686935424805	-407.7463989257813	-35.30510711669922	16.299205780029297	76.33552551269531	-0.0	-0.0	-0.0	72837.1484375	-22816.916015625	-12128.6435546875
0.319	-0.0	-0.0	-0.0	2.379533052444458	34.18238830566406	-348.2931213378906	-13.929197311401367	-42.04112243652344	-410.8308410644531	-35.4129524230957	15.922636032104492	75.69126892089844	-0.0	-0.0	-0.0	73485.703125	-23167.955078125	-12266.9794921875
0.3195	-0.0	-0.0	-0.0	2.037304401397705	33.88606262207031	-348.588623046875	-14.162935256958008	-41.85006332397461	-416.2457275390625	-35.35063934326172	16.420568466186523	76.74442291259766	-0.0	-0.0	-0.0	74404.5	-23674.4453125	-12237.4453125
0.32	-0.0	-0.0	-0.0	1.8132119178771973	33.52751922607422	-350.1735534667969	-14.517633438110352	-41.57075500488281	-418.8601989746094	-35.321590423583984	16.28206443786621	77.03875732421875	-0.0	-0.0	-0.0	75381.2578125	-24371.12890625	-12425.2822265625
0.3205	-0.0	-0.0	-0.0	1.4105085134506226	33.975528717041016	-353.647705078125	-15.332552909851074	-41.924102783203125	-422.7571105957031	-34.94670104980469	16.406213760375977	76.86875915527344	-0.0	-0.0	-0.0	75940.8359375	-24948.08203125	-12495.65625
0.321	-0.0	-0.0	-0.0	1.487714171409607	33.90100860595703	-356.6442565917969	-15.70180892944336	-41.34641647338867	-425.9649658203125	-35.24663543701172	16.087190628051758	77.22061157226562	-0.0	-0.0	-0.0	76705.1015625	-25539.80859375	-12416.4306640625
0.3215	-0.0	-0.0	-0.0	1.5453672409057615	33.97590637207031	-359.1727294921875	-15.65611171722412	-41.878753662109375	-430.4933776855469	-35.099586486816406	15.924625396728516	76.70108795166016	-0.0	-0.0	-0.0	77494.015625	-26545.474609375	-12440.5185546875
0.322	-0.0	-0.0	-0.0	1.933895230293274	34.0047492980957	-364.709228515625	-16.00224494934082	-41.64508819580078	-435.4484252929688	-35.54698181152344	16.543201446533203	76.68936920166016	-0.0	-0.0	-0.0	79026.2890625	-27056.8515625	-12357.4130859375
